<?xml version="1.0" encoding="UTF-8" standalone="no"?>
<!-- Created with Inkscape (http://www.inkscape.org/) -->

<svg
   xmlns:dc="http://purl.org/dc/elements/1.1/"
   xmlns:cc="http://creativecommons.org/ns#"
   xmlns:rdf="http://www.w3.org/1999/02/22-rdf-syntax-ns#"
   xmlns:svg="http://www.w3.org/2000/svg"
   xmlns="http://www.w3.org/2000/svg"
   xmlns:sodipodi="http://sodipodi.sourceforge.net/DTD/sodipodi-0.dtd"
   xmlns:inkscape="http://www.inkscape.org/namespaces/inkscape"
   version="1.1"
   id="svg2"
   width="815.59045"
   height="184.15126"
   viewBox="0 0 815.59045 184.15126"
   sodipodi:docname="unquitube-logo.svg"
   inkscape:version="0.92.3 (unknown)">
  <metadata
     id="metadata8">
    <rdf:RDF>
      <cc:Work
         rdf:about="">
        <dc:format>image/svg+xml</dc:format>
        <dc:type
           rdf:resource="http://purl.org/dc/dcmitype/StillImage" />
        <dc:title></dc:title>
        <dc:title></dc:title>
      </cc:Work>
    </rdf:RDF>
  </metadata>
  <defs
     id="defs6" />
  <sodipodi:namedview
     pagecolor="#ffffff"
     bordercolor="#666666"
     borderopacity="1"
     objecttolerance="10"
     gridtolerance="10"
     guidetolerance="10"
     inkscape:pageopacity="0"
     inkscape:pageshadow="2"
     inkscape:window-width="1366"
     inkscape:window-height="717"
     id="namedview4"
     showgrid="false"
     inkscape:zoom="0.90353463"
     inkscape:cx="343.30522"
     inkscape:cy="35.613296"
     inkscape:window-x="0"
     inkscape:window-y="0"
     inkscape:window-maximized="1"
     inkscape:current-layer="svg2"
     fit-margin-top="0"
     fit-margin-left="0"
     fit-margin-right="0"
     fit-margin-bottom="0" />
  <g
     id="g4542"
     transform="translate(-45.268711,-62.511821)">
    <path
       style="display:inline;fill:#a0a0a0;stroke-width:1.33333337"
       d="m 474.66665,245.36413 c -1.56993,-0.99039 -2.09398,-4.97606 -2.43708,-18.53486 l -0.43708,-17.27316 -4.52009,1.88861 c -23.79405,9.94179 -37.31017,-16.93457 -32.73761,-65.09766 1.84949,-19.48095 4.94536,-27.65457 12.56521,-33.17436 7.01899,-5.08452 13.11169,-5.06516 21.20489,0.0674 l 6.16032,3.90676 1.91631,-2.8861 c 1.62917,-2.45369 3.19249,-2.8892 10.43405,-2.90676 l 8.51775,-0.0207 0.346,65.84812 c 0.24967,47.51476 -0.0743,66.35443 -1.16325,67.66667 -1.75528,2.11497 -16.699,2.50345 -19.84942,0.516 z m -3.96514,-57.42925 c 0.95572,-1.78578 1.31826,-11.28928 1.0469,-27.4433 -0.37642,-22.40971 -0.6496,-24.88276 -2.93261,-26.54988 -3.39109,-2.47628 -6.77439,-0.53236 -8.75477,5.03016 -3.70076,10.39478 -2.8483,41.32876 1.35538,49.1834 1.80647,3.37542 7.43215,3.24189 9.2851,-0.22038 z M 93.333331,225.32387 C 72.236565,223.90719 65.959242,222.03482 58.211221,214.84779 48.00568,205.38118 45.252338,190.45102 45.268784,144.66667 c 0.01657,-46.130878 2.596463,-60.608803 12.57578,-70.573204 6.607666,-6.597792 11.914661,-8.345633 31.05927,-10.229269 18.703806,-1.840265 130.437946,-1.788069 147.651986,0.06897 17.08153,1.84275 22.27904,3.480376 28.82257,9.081399 7.07774,6.058278 8.81074,9.73672 11.56746,24.553018 2.82814,15.200166 3.23672,73.971246 0.63333,91.099086 -2.90767,19.12968 -11.07232,30.45273 -24.58129,34.09032 -2.89179,0.77868 -13.74931,1.96407 -24.12784,2.6342 -21.5343,1.39046 -114.5159,1.34427 -135.536719,-0.0673 z M 164.3759,164.22156 c 11.15992,-6.47814 22.85186,-13.19486 25.98208,-14.92604 3.13023,-1.73118 5.48075,-3.78089 5.22337,-4.55489 -0.63193,-1.90048 -51.89517,-31.52436 -53.58135,-30.96347 -0.82379,0.27403 -1.47011,12.24843 -1.69124,31.33319 C 139.99397,172.27879 140.19988,176 142.018,176 c 1.13693,0 11.19798,-5.30029 22.3579,-11.77844 z m 353.08595,48.75879 c -6.93866,-3.56592 -8.36621,-7.48461 -9.65861,-26.51337 C 507.13832,176.6768 506.76057,155.76667 506.9638,140 l 0.36952,-28.66666 10.34493,-0.38963 c 10.07418,-0.37943 10.37952,-0.29864 11.66667,3.0868 0.74448,1.95813 1.32968,18.14212 1.33993,37.05629 0.0107,18.46892 0.38,34.92987 0.82219,36.57987 1.03472,3.86104 5.05864,3.88008 7.75068,0.0367 1.74533,-2.49183 2.0756,-8.31224 2.0756,-36.57987 0,-18.6154 0.58027,-35.14273 1.30033,-37.03665 1.21012,-3.18287 1.89634,-3.42015 9.89095,-3.42015 14.10012,0 12.80872,-5.0958 12.80872,50.54265 0,36.27423 -0.41369,49.33771 -1.6,50.52402 -2.18481,2.18481 -10.42944,2.01104 -17.4352,-0.36748 -5.33973,-1.81288 -6.33979,-1.7605 -12.72757,0.66666 -7.99872,3.03928 -11.62402,3.25259 -16.1087,0.94783 z m 156,0 c -9.38359,-4.82241 -11.06132,-15.74773 -10.49051,-68.31368 l 0.36198,-33.33333 7.94444,-0.40816 c 14.86949,-0.76395 13.49774,-4.38266 14.50717,38.27041 0.48489,20.489 1.25801,38.23357 1.71804,39.4324 0.49019,1.27739 1.99421,2.01251 3.63335,1.77584 5.53438,-0.79907 6.15652,-5.00925 6.17734,-41.80383 0.0143,-25.21418 0.45816,-35.17183 1.61966,-36.33333 2.10737,-2.10738 18.69262,-2.10738 20.79999,0 1.18562,1.18562 1.6,14.12291 1.6,49.95309 0,46.44067 -0.102,48.40768 -2.57901,49.73334 -3.61407,1.93418 -9.66557,1.71824 -16.45618,-0.58724 -5.33974,-1.81288 -6.33979,-1.7605 -12.72758,0.66666 -7.99872,3.03928 -11.62401,3.25259 -16.10869,0.94783 z m 86.73537,-1.66308 c -6.669,-3.81247 -8.58351,-4.06499 -10.7774,-1.42149 -1.89663,2.28528 -10.90765,3.99141 -14.70889,2.78494 -2.71703,-0.86234 -2.7326,-1.31693 -2.38956,-69.77436 l 0.34528,-68.906358 h 10.66666 10.66667 l 0.36981,19.812636 c 0.36939,19.789982 0.3732,19.811582 3.33334,18.888912 1.62993,-0.50806 5.96352,-1.20714 9.63018,-1.55353 17.22038,-1.62681 25.93856,14.99878 25.96678,49.51865 0.0164,20.12603 -1.7317,31.33328 -6.34335,40.66667 -6.36168,12.8752 -15.64395,16.3384 -26.75952,9.98393 z m 7.577,-26.6506 c 1.26637,-3.80669 1.62063,-10.86741 1.2376,-24.66667 -0.61453,-22.13977 -1.95004,-26.66666 -7.86712,-26.66666 -5.23612,0 -5.81139,2.98228 -5.81139,30.1271 0,24.94679 0.73615,27.69392 7.2192,26.94031 2.6972,-0.31353 3.83359,-1.56143 5.22171,-5.73408 z m 53.05879,28.11745 c -16.15606,-5.99726 -21.25632,-22.49364 -19.44371,-62.8889 0.64503,-14.37462 1.14637,-16.95298 4.66667,-24 7.02716,-14.06714 20.797,-19.90824 34.54998,-14.65593 7.13475,2.72479 14.69579,10.74017 16.66492,17.66634 1.93597,6.80955 4.34796,32.09432 3.35884,35.21075 -0.71027,2.23782 -2.62061,2.51384 -19.70812,2.84749 l -18.92161,0.36947 0.37243,6 c 0.57308,9.23278 3.07396,18.79374 5.12141,19.57942 4.36949,1.67672 8.27881,-0.89497 10.60008,-6.97313 2.7102,-7.09656 4.97053,-8.60629 12.88509,-8.60629 6.87312,0 9.02568,1.73645 9.00796,7.26666 -0.0143,4.43659 -5.49787,17.24511 -9.07805,21.20422 -6.30786,6.97542 -20.94004,10.37121 -30.07589,6.9799 z m 16.81777,-70.70904 c -0.4056,-7.65612 -3.2326,-12.74174 -7.08291,-12.74174 -3.0694,0 -5.95836,5.71858 -7.37985,14.60816 l -0.88521,5.53577 7.84858,-0.40531 7.84859,-0.40529 z m -528.98412,69.33434 c -6.52717,-2.36647 -14.74176,-11.21662 -15.85085,-17.07722 -1.02986,-5.44189 -3.37114,-117.06793 -2.50292,-119.332198 0.4441,-1.158186 4.20917,-1.666667 12.34092,-1.666667 11.00813,0 11.74949,0.177844 12.5058,3 0.44218,1.65 0.81217,25.575005 0.82218,53.166665 0.0107,27.59167 0.40134,52.08231 0.8696,54.42364 1.89504,9.47523 12.82083,10.06642 14.56148,0.78792 0.48932,-2.60828 1.2716,-28.5854 1.7384,-57.72694 l 0.84872,-52.984618 8.62553,-0.404542 c 4.74404,-0.222497 9.99404,-0.06107 11.66667,0.358736 l 3.04113,0.763278 -0.0264,51.641266 c -0.0145,28.40269 -0.62235,55.84126 -1.35072,60.9746 -1.58289,11.1557 -6.09201,18.44073 -13.9562,22.54792 -6.83028,3.56721 -25.36548,4.41696 -33.33333,1.52816 z m 60.09524,-0.17132 c -1.82494,-1.82494 -2.09524,-8.11475 -2.09524,-48.75432 0,-29.6135 0.50424,-47.60126 1.38024,-49.2381 2.00116,-3.73919 15.52241,-3.68371 20.31144,0.0834 l 3.38464,2.66235 5.79517,-3.31296 c 11.64625,-6.65788 22.09,-3.05863 25.90007,8.926 1.82793,5.74978 2.36573,14.60189 2.8938,47.63201 0.60798,38.02884 0.49756,40.68023 -1.76322,42.33334 -3.09084,2.26008 -17.12597,2.33206 -18.89388,0.0969 -0.7378,-0.9328 -1.71744,-17.22473 -2.22484,-37 -0.49862,-19.43333 -1.24392,-36.68333 -1.65621,-38.33333 -0.50213,-2.00948 -1.74857,-3 -3.77516,-3 -6.28439,0 -6.64125,1.9862 -7.35205,40.91944 -0.5569,30.5031 -0.99599,36.72372 -2.66667,37.77782 -3.37089,2.12687 -16.87503,1.57056 -19.23809,-0.7925 z m 209.57142,0.6551 c -2.15541,-1.25541 -2.33333,-5.10492 -2.33333,-50.48346 0,-43.56507 0.23868,-49.21602 2.10905,-49.93375 3.72504,-1.42944 17.30384,-0.86309 18.95761,0.79068 1.18561,1.18562 1.6,14.12291 1.6,49.95309 0,46.44067 -0.102,48.40768 -2.57901,49.73334 -3.28663,1.75894 -14.69765,1.72045 -17.75432,-0.0599 z m 47.7619,-0.6551 c -1.83892,-1.83892 -2.09524,-9.01587 -2.09524,-58.66667 V 96.000002 h -7.89094 c -11.75659,0 -12.10906,-0.287812 -12.10906,-9.887812 0,-13.240106 -1.38934,-12.71309 33.86504,-12.845907 23.91454,-0.09009 30.77328,0.265925 31.64626,1.64268 1.8074,2.850392 1.37336,17.916935 -0.56243,19.523498 -0.94479,0.784105 -5.59479,1.607572 -10.33333,1.829927 l -8.61554,0.404281 -0.34797,56.547691 c -0.24024,39.04091 -0.80677,57.10051 -1.82992,58.33334 -2.20473,2.65652 -19.00007,2.4172 -21.72687,-0.3096 z M 577.60232,97.499588 c -1.23752,-0.764835 -1.60483,-4.355887 -1.32413,-12.945679 l 0.38846,-11.887241 7.94444,-0.40816 c 13.98507,-0.718508 14.05556,-0.655944 14.05556,12.47541 0,7.917741 -0.50397,11.504671 -1.66667,11.862011 -3.9805,1.223369 -17.83597,1.86884 -19.39766,0.903659 z"
       id="path4550"
       inkscape:connector-curvature="0" />
    <path
       style="display:inline;fill:#f9051f;stroke-width:1.33333337"
       d="m 474.64624,227.72509 c -0.0107,-9.01547 -0.55164,-17.23074 -1.20092,-18.25618 -1.00117,-1.58123 -2.01483,-1.53059 -6.67323,0.33333 -6.7232,2.6901 -11.11857,2.78014 -15.83831,0.32444 -5.39724,-2.80817 -9.26556,-7.51657 -11.63739,-14.16464 -4.89699,-13.72592 -4.86936,-55.38945 0.046,-69.32094 3.38247,-9.58708 11.0028,-15.97443 19.058,-15.97443 2.17977,0 6.27474,1.74477 9.388,4 3.03701,2.2 5.90824,4 6.38049,4 0.47225,0 2.2792,-1.5328 4.01544,-3.40623 2.67516,-2.88655 4.12244,-3.34425 9.48623,-3 l 6.32944,0.40623 V 178 243.33334 l -9.66667,0.39175 -9.66667,0.39174 -0.0204,-16.39174 z m -2.69316,-38.3041 c 0.80884,-1.51133 1.38024,-12.79624 1.38024,-27.25897 0,-23.85738 -0.10267,-24.79926 -3.07812,-28.25851 -4.04956,-4.70789 -8.38767,-3.46424 -11.24945,3.22497 -4.52052,10.56638 -3.43131,43.95362 1.68885,51.76796 2.59124,3.95474 9.25649,4.26528 11.25848,0.52455 z M 109.33333,224.06898 C 84.902916,222.89835 78.286747,222.08949 69.017012,219.14004 61.103984,216.62228 53.995776,208.68915 51.278875,199.34334 45.035374,177.86644 45.164379,111.81102 51.493507,89.44401 55.526031,75.193158 63.02398,69.544054 81.999998,66.459812 96.757427,64.061233 221.74378,64.000788 240.66666,66.383079 c 19.31699,2.431905 29.00533,9.211111 32.61031,22.818308 5.72973,21.627313 5.61288,92.913593 -0.18164,110.798613 -4.69278,14.48447 -13.80015,20.48587 -34.27707,22.58719 -18.15712,1.86328 -101.5962,2.81812 -129.48493,1.48179 z m 62.65169,-61.6202 c 14.51547,-8.46268 26.16991,-16.1096 26.40389,-17.32459 0.30131,-1.56457 -4.93349,-5.26517 -18.65169,-13.18528 -10.4888,-6.05564 -22.93268,-13.3192 -27.65304,-16.14125 -10.54898,-6.30665 -12.81761,-6.46384 -13.91752,-0.96432 -1.33993,6.69968 -0.95748,57.99986 0.4602,61.72866 1.67986,4.41834 1.28743,4.58436 33.35816,-14.11322 z m 348.39381,49.8965 c -5.063,-0.88909 -9.417,-7.52946 -10.48976,-15.99818 -0.5351,-4.22423 -1.02904,-24.78043 -1.09766,-45.68043 l -0.12476,-38 h 9.33334 9.33333 l 0.92309,36.94396 c 0.55852,22.35305 1.49859,38.01928 2.38024,39.66667 2.1057,3.93452 7.45439,3.50737 10.291,-0.82184 2.01354,-3.07304 2.4167,-8.34966 3.03075,-39.66667 l 0.70825,-36.12212 h 9.33334 9.33333 l 0.34991,48.27755 c 0.3401,46.9262 0.27605,48.31708 -2.28851,49.6896 -3.16685,1.69484 -12.85372,0.47206 -17.05828,-2.15327 -2.63227,-1.6436 -3.60556,-1.56676 -8,0.63163 -5.60892,2.80594 -11.54331,4.00829 -15.95761,3.2331 z m 154.51742,-0.58361 c -3.53347,-0.97553 -5.00719,-2.50152 -7.23669,-7.49333 -2.64755,-5.92778 -2.80491,-8.58644 -2.89628,-48.935 l -0.0967,-42.66667 6.57831,-0.41639 c 13.46822,-0.85251 12.3535,-4.13899 12.97614,38.25682 0.59111,40.2478 0.91874,42.01226 7.65491,41.22698 5.97149,-0.69613 6.66597,-4.55853 7.76791,-43.2015 l 1.02277,-35.86591 7.77916,-0.40323 c 4.58813,-0.23782 8.55342,0.23935 9.66666,1.16326 1.56263,1.29687 1.88751,9.67726 1.88751,48.68965 0,45.09729 -0.11,47.18204 -2.55895,48.49267 -3.26165,1.74558 -14.7405,0.30566 -17.6475,-2.21374 -1.92905,-1.67185 -2.85101,-1.58966 -7.33333,0.65376 -6.75399,3.38039 -12.13506,4.21147 -17.56395,2.71263 z m 87.7704,-1.00797 c -11.32932,-6.25258 -10.39863,-6.03484 -12.96078,-3.03218 -2.18054,2.55546 -7.29272,3.69747 -14.05144,3.13898 -2.21009,-0.18263 -2.3256,-4.10199 -2,-67.8605 l 0.34555,-67.666665 8.54525,-0.402457 c 5.93419,-0.279483 8.88168,0.127933 9.64626,1.333333 0.60554,0.954685 1.11018,10.285791 1.12141,20.735791 C 753.32623,109.36408 753.82211,116 754.73286,116 c 0.76975,0 3.26917,-0.96682 5.55428,-2.1485 2.82013,-1.45834 6.10225,-1.92898 10.21745,-1.46514 4.907,0.55309 7.01084,1.6998 11.03647,6.01548 7.77675,8.33708 9.72827,16.78531 9.76309,42.26483 0.0427,31.20899 -3.0729,42.3612 -13.86641,49.63493 -5.49531,3.7033 -8.70225,3.80144 -14.77109,0.4521 z m 3.30557,-20.60472 c 4.33704,-4.33704 5.0802,-9.64236 4.45667,-31.8151 -0.55271,-19.65346 -1.5641,-23.7303 -6.54888,-26.39808 -3.81008,-2.0391 -8.59843,1.32288 -9.6953,6.80723 -1.38613,6.93065 -0.96969,43.43139 0.54198,47.50351 1.37077,3.69258 4.68608,7.0868 6.92206,7.0868 0.62651,0 2.57207,-1.43296 4.32347,-3.18436 z m 57.91116,21.95534 c -10.65796,-2.111 -16.96012,-10.03822 -19.91308,-25.04781 -2.41503,-12.27536 -1.16785,-51.39423 1.86156,-58.38984 4.49856,-10.38817 14.92199,-17.90901 24.90633,-17.97072 7.53455,-0.0466 18.09408,5.96387 21.84303,12.43295 4.44481,7.66983 8.82753,36.43429 6.19929,40.68688 -0.54859,0.88761 -8.01831,1.58146 -19.5015,1.81145 L 820.66665,166 l 0.40642,8 c 0.58686,11.55118 2.52262,17.67363 6.38891,20.20692 3.16287,2.07239 3.56524,2.04564 6.94765,-0.46178 1.9747,-1.46387 4.1912,-4.46419 4.92559,-6.6674 2.39744,-7.19246 4.41532,-8.57512 11.87966,-8.13996 5.89998,0.34396 6.8412,0.79097 7.21524,3.42669 0.70076,4.93809 -3.51468,15.53155 -8.49644,21.3516 -6.06934,7.09067 -16.17409,10.34441 -26.0503,8.38825 z m 15.19596,-69.69677 C 838.75939,132.84253 835.85738,128 830.44526,128 c -3.23687,0 -4.26316,0.83401 -5.92724,4.81673 -1.10691,2.64919 -2.36335,7.77859 -2.79209,11.39866 l -0.77954,6.58193 9.19347,-0.39865 L 839.33331,150 Z m -527.39396,68.26484 c -6.01381,-1.81079 -12.2036,-6.23599 -14.73261,-10.53264 -3.42955,-5.8266 -4.86756,-29.78296 -4.91388,-81.8625 l -0.0389,-43.722754 10.33334,0.38942 10.33333,0.389419 0.89959,52.589095 c 0.49478,28.924 1.27282,54.57855 1.72898,57.01009 1.60494,8.55502 10.74224,10.9091 15.82432,4.07687 2.60456,-3.50152 2.75223,-6.00013 3.46709,-58.66667 l 0.74668,-55.009385 7.26207,-0.412101 c 3.99415,-0.226656 8.70729,-0.04937 10.47367,0.393954 l 3.21157,0.806056 -0.63373,56.272716 c -0.44374,39.40115 -1.12934,57.86272 -2.28674,61.57598 -2.14854,6.89314 -10.02318,14.68272 -16.72357,16.54289 -6.08524,1.6894 -19.58376,1.77572 -24.95121,0.15956 z m 59.96496,0.40537 c -2.19824,-0.57341 -2.32714,-3.76421 -2,-49.512 l 0.34965,-48.89909 6.56109,-0.41569 c 5.08384,-0.3221 7.44262,0.23605 10.47636,2.47899 l 3.91527,2.89469 7.21348,-3.64969 c 12.54827,-6.34884 21.80221,-2.30901 24.51463,10.70191 0.76322,3.66105 1.76138,23.99934 2.21814,45.19619 0.78475,36.41805 0.69543,38.63848 -1.62242,40.33333 -2.59647,1.89859 -13.59775,2.4276 -16.0791,0.77319 -0.97682,-0.65129 -1.73064,-13.13284 -2.24929,-37.24353 -0.47897,-22.26628 -1.34528,-37.32006 -2.24436,-39 -1.45281,-2.71462 -6.01501,-3.60028 -8.83753,-1.71564 -3.67723,2.45536 -4.38708,8.07133 -5.30168,41.94408 -0.93278,34.54598 -1.03326,35.51424 -3.76148,36.24661 -3.16646,0.85003 -9.63428,0.78444 -13.15276,-0.13335 z m 207.91874,-0.74442 c -2.08167,-1.52576 -2.24412,-5.72487 -1.92151,-49.66667 l 0.35242,-48 7.77915,-0.40323 c 4.58814,-0.23782 8.55343,0.23935 9.66667,1.16326 1.56263,1.29687 1.88751,9.67726 1.88751,48.68965 0,45.22468 -0.10387,47.17877 -2.57902,48.50341 -3.55217,1.90107 -12.42916,1.73363 -15.18522,-0.28642 z m 49.4309,0.74756 c -2.17533,-0.56847 -2.33333,-4.38776 -2.33333,-56.40295 0,-30.68625 -0.36419,-56.742253 -0.80932,-57.902232 -0.60952,-1.58838 -2.72217,-2.109049 -8.55761,-2.109049 -11.00471,0 -11.9664,-0.59384 -11.9664,-7.389186 0,-3.173801 0.58514,-7.309609 1.30033,-9.190681 l 1.30033,-3.420134 h 29.89035 c 26.02611,0 29.99497,0.27266 30.69967,2.10905 1.4672,3.823454 0.85286,14.861621 -0.90848,16.323409 -0.94479,0.784106 -5.59479,1.607572 -10.33334,1.829927 l -8.61553,0.404282 -0.34739,57.514824 -0.34737,57.51484 -2.98596,0.8003 c -3.34376,0.8962 -12.42027,0.84941 -15.98595,-0.0824 z m -51.38821,-126.021378 0.38822,-11.05952 6.08143,-0.396102 c 3.3448,-0.217854 7.72118,0.227326 9.7253,0.989291 3.56358,1.354869 3.63522,1.598587 3.25189,11.062767 l -0.39196,9.677378 -9.72155,0.392853 -9.72155,0.392855 z"
       id="path4548"
       inkscape:connector-curvature="0" />
    <path
       style="display:inline;fill:#5d5d5d;stroke-width:1.33333337"
       d="m 474.64624,227.72509 c -0.0107,-9.01547 -0.55164,-17.23074 -1.20092,-18.25618 -1.00117,-1.58123 -2.01483,-1.53059 -6.67323,0.33333 -6.7232,2.6901 -11.11857,2.78014 -15.83831,0.32444 -5.39724,-2.80817 -9.26556,-7.51657 -11.63739,-14.16464 -4.89699,-13.72592 -4.86936,-55.38945 0.046,-69.32094 3.38247,-9.58708 11.0028,-15.97443 19.058,-15.97443 2.17977,0 6.27474,1.74477 9.388,4 3.03701,2.2 5.90824,4 6.38049,4 0.47225,0 2.2792,-1.5328 4.01544,-3.40623 2.67516,-2.88655 4.12244,-3.34425 9.48623,-3 l 6.32944,0.40623 V 178 243.33334 l -9.66667,0.39175 -9.66667,0.39174 -0.0204,-16.39174 z m -2.69316,-38.3041 c 0.80884,-1.51133 1.38024,-12.79624 1.38024,-27.25897 0,-23.85738 -0.10267,-24.79926 -3.07812,-28.25851 -4.04956,-4.70789 -8.38767,-3.46424 -11.24945,3.22497 -4.52052,10.56638 -3.43131,43.95362 1.68885,51.76796 2.59124,3.95474 9.25649,4.26528 11.25848,0.52455 z m 48.42575,22.92429 c -5.063,-0.88909 -9.417,-7.52946 -10.48976,-15.99818 -0.5351,-4.22423 -1.02904,-24.78043 -1.09766,-45.68043 l -0.12476,-38 h 9.33334 9.33333 l 0.92309,36.94396 c 0.55852,22.35305 1.49859,38.01928 2.38024,39.66667 2.1057,3.93452 7.45439,3.50737 10.291,-0.82184 2.01354,-3.07304 2.4167,-8.34966 3.03075,-39.66667 l 0.70825,-36.12212 h 9.33334 9.33333 l 0.34991,48.27755 c 0.3401,46.9262 0.27605,48.31708 -2.28851,49.6896 -3.16685,1.69484 -12.85372,0.47206 -17.05828,-2.15327 -2.63227,-1.6436 -3.60556,-1.56676 -8,0.63163 -5.60892,2.80594 -11.54331,4.00829 -15.95761,3.2331 z m 154.51742,-0.58361 c -3.53347,-0.97553 -5.00719,-2.50152 -7.23669,-7.49333 -2.64755,-5.92778 -2.80491,-8.58644 -2.89628,-48.935 l -0.0967,-42.66667 6.57831,-0.41639 c 13.46822,-0.85251 12.3535,-4.13899 12.97614,38.25682 0.59111,40.2478 0.91874,42.01226 7.65491,41.22698 5.97149,-0.69613 6.66597,-4.55853 7.76791,-43.2015 l 1.02277,-35.86591 7.77916,-0.40323 c 4.58813,-0.23782 8.55342,0.23935 9.66666,1.16326 1.56263,1.29687 1.88751,9.67726 1.88751,48.68965 0,45.09729 -0.11,47.18204 -2.55895,48.49267 -3.26165,1.74558 -14.7405,0.30566 -17.6475,-2.21374 -1.92905,-1.67185 -2.85101,-1.58966 -7.33333,0.65376 -6.75399,3.38039 -12.13506,4.21147 -17.56395,2.71263 z m 87.7704,-1.00797 c -11.32932,-6.25258 -10.39863,-6.03484 -12.96078,-3.03218 -2.18054,2.55546 -7.29272,3.69747 -14.05144,3.13898 -2.21009,-0.18263 -2.3256,-4.10199 -2,-67.8605 l 0.34555,-67.666665 8.54525,-0.402457 c 5.93419,-0.279483 8.88168,0.127933 9.64626,1.333333 0.60554,0.954685 1.11018,10.285791 1.12141,20.735791 C 753.32623,109.36408 753.82211,116 754.73286,116 c 0.76975,0 3.26917,-0.96682 5.55428,-2.1485 2.82013,-1.45834 6.10225,-1.92898 10.21745,-1.46514 4.907,0.55309 7.01084,1.6998 11.03647,6.01548 7.77675,8.33708 9.72827,16.78531 9.76309,42.26483 0.0427,31.20899 -3.0729,42.3612 -13.86641,49.63493 -5.49531,3.7033 -8.70225,3.80144 -14.77109,0.4521 z m 3.30557,-20.60472 c 4.33704,-4.33704 5.0802,-9.64236 4.45667,-31.8151 -0.55271,-19.65346 -1.5641,-23.7303 -6.54888,-26.39808 -3.81008,-2.0391 -8.59843,1.32288 -9.6953,6.80723 -1.38613,6.93065 -0.96969,43.43139 0.54198,47.50351 1.37077,3.69258 4.68608,7.0868 6.92206,7.0868 0.62651,0 2.57207,-1.43296 4.32347,-3.18436 z m 57.91116,21.95534 c -10.65796,-2.111 -16.96012,-10.03822 -19.91308,-25.04781 -2.41503,-12.27536 -1.16785,-51.39423 1.86156,-58.38984 4.49856,-10.38817 14.92199,-17.90901 24.90633,-17.97072 7.53455,-0.0466 18.09408,5.96387 21.84303,12.43295 4.44481,7.66983 8.82753,36.43429 6.19929,40.68688 -0.54859,0.88761 -8.01831,1.58146 -19.5015,1.81145 L 820.66665,166 l 0.40642,8 c 0.58686,11.55118 2.52262,17.67363 6.38891,20.20692 3.16287,2.07239 3.56524,2.04564 6.94765,-0.46178 1.9747,-1.46387 4.1912,-4.46419 4.92559,-6.6674 2.39744,-7.19246 4.41532,-8.57512 11.87966,-8.13996 5.89998,0.34396 6.8412,0.79097 7.21524,3.42669 0.70076,4.93809 -3.51468,15.53155 -8.49644,21.3516 -6.06934,7.09067 -16.17409,10.34441 -26.0503,8.38825 z m 15.19596,-69.69677 C 838.75939,132.84253 835.85738,128 830.44526,128 c -3.23687,0 -4.26316,0.83401 -5.92724,4.81673 -1.10691,2.64919 -2.36335,7.77859 -2.79209,11.39866 l -0.77954,6.58193 9.19347,-0.39865 L 839.33331,150 Z m -527.39396,68.26484 c -6.01381,-1.81079 -12.2036,-6.23599 -14.73261,-10.53264 -3.42955,-5.8266 -4.86756,-29.78296 -4.91388,-81.8625 l -0.0389,-43.722754 10.33334,0.38942 10.33333,0.389419 0.89959,52.589095 c 0.49478,28.924 1.27282,54.57855 1.72898,57.01009 1.60494,8.55502 10.74224,10.9091 15.82432,4.07687 2.60456,-3.50152 2.75223,-6.00013 3.46709,-58.66667 l 0.74668,-55.009385 7.26207,-0.412101 c 3.99415,-0.226656 8.70729,-0.04937 10.47367,0.393954 l 3.21157,0.806056 -0.63373,56.272716 c -0.44374,39.40115 -1.12934,57.86272 -2.28674,61.57598 -2.14854,6.89314 -10.02318,14.68272 -16.72357,16.54289 -6.08524,1.6894 -19.58376,1.77572 -24.95121,0.15956 z m 59.96496,0.40537 c -2.19824,-0.57341 -2.32714,-3.76421 -2,-49.512 l 0.34965,-48.89909 6.56109,-0.41569 c 5.08384,-0.3221 7.44262,0.23605 10.47636,2.47899 l 3.91527,2.89469 7.21348,-3.64969 c 12.54827,-6.34884 21.80221,-2.30901 24.51463,10.70191 0.76322,3.66105 1.76138,23.99934 2.21814,45.19619 0.78475,36.41805 0.69543,38.63848 -1.62242,40.33333 -2.59647,1.89859 -13.59775,2.4276 -16.0791,0.77319 -0.97682,-0.65129 -1.73064,-13.13284 -2.24929,-37.24353 -0.47897,-22.26628 -1.34528,-37.32006 -2.24436,-39 -1.45281,-2.71462 -6.01501,-3.60028 -8.83753,-1.71564 -3.67723,2.45536 -4.38708,8.07133 -5.30168,41.94408 -0.93278,34.54598 -1.03326,35.51424 -3.76148,36.24661 -3.16646,0.85003 -9.63428,0.78444 -13.15276,-0.13335 z m 207.91874,-0.74442 c -2.08167,-1.52576 -2.24412,-5.72487 -1.92151,-49.66667 l 0.35242,-48 7.77915,-0.40323 c 4.58814,-0.23782 8.55343,0.23935 9.66667,1.16326 1.56263,1.29687 1.88751,9.67726 1.88751,48.68965 0,45.22468 -0.10387,47.17877 -2.57902,48.50341 -3.55217,1.90107 -12.42916,1.73363 -15.18522,-0.28642 z m 49.4309,0.74756 c -2.17533,-0.56847 -2.33333,-4.38776 -2.33333,-56.40295 0,-30.68625 -0.36419,-56.742253 -0.80932,-57.902232 -0.60952,-1.58838 -2.72217,-2.109049 -8.55761,-2.109049 -11.00471,0 -11.9664,-0.59384 -11.9664,-7.389186 0,-3.173801 0.58514,-7.309609 1.30033,-9.190681 l 1.30033,-3.420134 h 29.89035 c 26.02611,0 29.99497,0.27266 30.69967,2.10905 1.4672,3.823454 0.85286,14.861621 -0.90848,16.323409 -0.94479,0.784106 -5.59479,1.607572 -10.33334,1.829927 l -8.61553,0.404282 -0.34739,57.514824 -0.34737,57.51484 -2.98596,0.8003 c -3.34376,0.8962 -12.42027,0.84941 -15.98595,-0.0824 z m -51.38821,-126.021378 0.38822,-11.05952 6.08143,-0.396102 c 3.3448,-0.217854 7.72118,0.227326 9.7253,0.989291 3.56358,1.354869 3.63522,1.598587 3.25189,11.062767 l -0.39196,9.677378 -9.72155,0.392853 -9.72155,0.392855 z"
       id="path4546"
       inkscape:connector-curvature="0" />
    <path
       style="display:inline;fill:#070707;stroke-width:1.33333337"
       d="m 475.99999,226.31847 c 0,-21.10359 -0.62007,-22.18371 -10.37024,-18.06437 -6.56338,2.77294 -7.40966,2.84172 -12.62228,1.02573 -6.05525,-2.10955 -10.58949,-7.55741 -13.14165,-15.78965 -0.82247,-2.65294 -1.79811,-14.52886 -2.1681,-26.39096 -1.17761,-37.75534 3.78967,-52.22758 18.7598,-54.6569 3.35067,-0.54373 5.75576,0.33019 11.44473,4.15858 l 7.20259,4.84698 3.77935,-4.13785 c 3.15193,-3.45093 4.60965,-4.06914 8.7809,-3.72394 L 492.66665,114 v 64 64.00001 l -8.33333,0.39696 -8.33333,0.39694 z m -3.26807,-36.23095 c 1.72028,-2.62549 2.17128,-7.78557 2.35987,-27 0.25778,-26.26605 -0.7209,-30.62171 -7.4089,-32.97375 -3.02734,-1.06466 -4.1989,-0.76052 -6.92096,1.79672 -4.30324,4.04269 -6.10324,12.89677 -6.06268,29.82181 0.0347,14.49602 1.56543,23.7333 4.7394,28.60104 2.8083,4.30689 10.40223,4.16648 13.29327,-0.24582 z m 290.60139,19.28723 c -2.93333,-1.44612 -6.6455,-3.59509 -8.24928,-4.77551 -2.75334,-2.02653 -3.08272,-1.95438 -5.9071,1.29395 -2.35419,2.70755 -4.22035,3.44015 -8.76318,3.44015 h -5.772 L 734.98753,143 l 0.34578,-66.333332 7.66667,-0.399872 7.66667,-0.399872 0.0204,19.733206 c 0.0107,10.85326 0.50728,20.50041 1.10232,21.43811 0.85213,1.34281 2.33449,1.13664 6.97958,-0.97072 7.71335,-3.49934 13.15435,-3.42159 18.60251,0.26582 8.62208,5.83556 13.29517,21.63774 13.29517,44.95798 0,37.17831 -10.82537,56.22178 -27.33333,48.08343 z m 2.20054,-16.14873 c 5.05053,-2.70298 6.46664,-9.17462 6.45869,-29.51652 -0.008,-20.27151 -1.2634,-27.647 -5.41247,-31.79607 -3.21332,-3.21332 -6.7482,-3.28442 -10.54241,-0.21205 -2.52837,2.04736 -3.11748,4.49068 -4.35,18.04178 -1.96799,21.63727 -0.0963,37.56282 4.922,41.87938 3.99916,3.43993 5.11733,3.64084 8.92419,1.60348 z m -454.04067,15.87465 c -2.84541,-0.79619 -7.43893,-3.71308 -10.20781,-6.48196 -4.68095,-4.68095 -5.10646,-5.76849 -6.06174,-15.49319 -0.56508,-5.75237 -1.07156,-32.95885 -1.12553,-60.45885 L 294,76.666668 h 8.66667 8.66667 L 312.11397,130 c 0.65414,44.6915 1.12601,54.13582 2.91213,58.28588 2.38999,5.55315 7.05703,7.5697 12.8247,5.54131 7.07747,-2.48901 7.35011,-4.61163 8.1126,-63.16052 l 0.70326,-54.000002 h 8.66666 8.66667 l 0.37761,40.666672 c 0.47755,51.42829 -0.97356,73.8421 -5.28032,81.55976 -4.18764,7.50421 -10.79804,10.75153 -22.91685,11.25778 -5.23257,0.21859 -11.84184,-0.25401 -14.68725,-1.05021 z m 203.90566,-1.5806 c -4.26459,-4.26459 -5.03427,-12.69177 -5.23559,-57.32435 L 509.99999,114 h 8 8 l 0.77102,36 c 0.42407,19.8 1.2147,37.35064 1.75696,39.00142 1.39112,4.23485 5.23432,6.02013 9.13435,4.24317 6.64763,-3.02887 6.95875,-4.78273 7.671,-43.24459 l 0.66667,-36 h 8 8 l 0.35017,47.66667 0.35017,47.66667 h -7.85421 c -6.49353,0 -8.17548,-0.48387 -9.70869,-2.793 l -1.85448,-2.793 -6.50674,3.45966 c -8.58542,4.56492 -17.00226,4.68818 -21.37737,0.31307 z m 155.98068,-0.0193 c -4.55876,-4.55876 -5.19183,-11.11914 -5.29143,-54.83408 l -0.0881,-38.66667 h 8 8 l 0.69326,36.66667 c 0.70678,37.3806 1.26847,41.34338 6.12423,43.20672 2.69484,1.0341 7.80408,-2.10447 10.10385,-6.20672 1.18079,-2.10623 1.88992,-13.52659 2.38026,-38.33334 l 0.6984,-35.33333 h 8 7.99999 v 47.33333 47.33334 l -7.26802,0.4123 c -6.16759,0.34988 -7.59717,-0.024 -9.44192,-2.46968 l -2.17389,-2.882 -6.84708,3.4697 c -8.89871,4.5093 -16.57242,4.62089 -20.88955,0.30376 z m 147.95379,1.61358 c -5.6163,-3.09861 -10.01733,-8.46541 -12.29769,-14.99629 -1.9568,-5.60423 -2.36897,-11.30841 -2.36897,-32.78469 0,-25.36852 0.0861,-26.18386 3.54841,-33.5695 10.18245,-21.72126 39.47988,-19.84088 46.31496,2.97261 1.7476,5.83295 4.06337,31.55903 2.9418,32.68061 -0.32063,0.32061 -8.90179,0.58294 -19.06924,0.58294 -15.10651,0 -18.62499,0.36144 -19.24492,1.97696 -1.20303,3.13503 1.97587,23.51954 4.19625,26.90827 4.89463,7.47015 14.46343,4.23424 17.77475,-6.01091 1.91756,-5.93289 4.60378,-7.45722 11.71021,-6.64509 5.53664,0.63273 5.59684,5.40823 0.19963,15.83424 -5.65816,10.93011 -11.42168,14.56775 -23.03852,14.54072 -4.4,-0.0107 -9.2,-0.68067 -10.66667,-1.48987 z m 21.19966,-66.1956 c -0.16182,-10.18486 -3.2653,-15.36572 -9.58274,-15.99707 -5.18625,-0.51831 -8.19888,3.63047 -10.363,14.27117 -2.18218,10.72962 -1.94874,10.97761 9.90914,10.527 l 10.17027,-0.38648 z M 370.98315,161.66667 371.33332,114 l 4.51783,-0.43157 c 6.10755,-0.58343 10.81551,0.74203 10.81551,3.04495 0,3.77463 3.04141,3.59538 11.45497,-0.67512 8.03524,-4.07848 8.91421,-4.24975 13.99603,-2.7272 8.05013,2.41188 9.2613,6.48057 10.74502,36.09582 0.68042,13.58122 1.06467,32.49312 0.85388,42.02646 l -0.38324,17.33333 -8.14685,0.39212 -8.14687,0.39211 -0.6982,-35.72544 c -0.69421,-35.52104 -1.5189,-41.94621 -5.58418,-43.50621 -3.21931,-1.23536 -8.34131,1.24013 -11.02083,5.32643 -2.12908,3.24687 -2.45412,7.66228 -2.85085,38.72618 l -0.44778,35.06148 h -7.9024 -7.90238 z m 207.99993,0.0641 0.35024,-47.7308 7.62488,-0.39862 c 7.00565,-0.36625 7.68557,-0.14969 8.37232,2.66666 0.41109,1.68591 0.57989,23.1653 0.37512,47.73196 l -0.37232,44.66667 -8.35024,0.3974 -8.35025,0.39739 0.35025,-47.73072 z m 49.0169,-8.90088 c 0,-44.47309 -0.36574,-56.806936 -1.7178,-57.929043 -0.94478,-0.784106 -5.59478,-1.607572 -10.33333,-1.829927 l -8.61553,-0.404281 0.38054,-6.666667 c 0.20931,-3.666667 0.64047,-7.416667 0.95816,-8.333334 0.438,-1.263845 7.51626,-1.666666 29.28612,-1.666666 h 28.70851 v 8.608253 8.608255 l -9.66667,0.391745 -9.66666,0.391747 -0.3475,57.666668 -0.3475,57.66667 h -9.31916 -9.31918 z M 578.66665,85.355113 c 0,-6.342957 0.54666,-9.635106 1.66667,-10.037301 0.91667,-0.329173 4.66666,-0.152928 8.33333,0.391655 l 6.66667,0.990149 v 8.650194 8.650192 l -8.33334,0.396956 -8.33333,0.396957 z"
       id="path4544"
       inkscape:connector-curvature="0" />
  </g>
</svg>
